<svg width="60" height="60" viewBox="0 0 60 60" fill="none" xmlns="http://www.w3.org/2000/svg">
<path d="M57.947 40.887C58.073 40.565 58.194 40.242 58.309 39.915C58.373 39.732 58.436 39.548 58.496 39.363C58.641 38.924 58.775 38.479 58.9 38.031C58.92 37.96 58.945 37.891 58.964 37.82C58.966 37.812 58.965 37.804 58.967 37.796C59.637 35.309 60 32.697 60 30C60 13.458 46.542 0 30 0C13.458 0 0 13.458 0 30C0 32.845 0.407 35.595 1.15 38.205C1.153 38.216 1.151 38.227 1.154 38.237C1.168 38.285 1.186 38.332 1.2 38.38C1.342 38.866 1.495 39.346 1.66 39.822C1.695 39.922 1.727 40.024 1.762 40.123C1.951 40.648 2.151 41.168 2.368 41.68C2.482 41.95 2.608 42.212 2.729 42.478C2.823 42.683 2.914 42.889 3.013 43.092C3.193 43.464 3.383 43.829 3.577 44.192C3.607 44.248 3.637 44.305 3.668 44.361C6.66 49.867 11.302 54.3 16.99 57.029C16.997 57.032 17.005 57.036 17.012 57.04C17.374 57.213 17.74 57.378 18.11 57.537C18.28 57.611 18.451 57.682 18.623 57.753C18.926 57.877 19.23 58 19.539 58.115C19.836 58.226 20.137 58.327 20.438 58.429C20.626 58.492 20.808 58.564 20.997 58.624C21.007 58.627 21.017 58.626 21.027 58.628C23.861 59.518 26.875 60 30 60C33.262 60 36.402 59.469 39.344 58.502C39.354 58.499 39.365 58.501 39.376 58.497C39.454 58.471 39.528 58.44 39.606 58.414C40.026 58.271 40.442 58.12 40.854 57.96C41.031 57.891 41.208 57.823 41.384 57.751C41.709 57.617 42.03 57.475 42.349 57.33C49.144 54.27 54.51 48.826 57.474 42.03C57.536 41.89 57.601 41.752 57.661 41.611C57.761 41.372 57.853 41.129 57.947 40.887ZM4.664 41.905C4.543 41.648 4.425 41.388 4.312 41.127C4.188 40.839 4.069 40.548 3.954 40.255C3.894 40.103 3.832 39.953 3.774 39.8C3.593 39.313 3.422 38.821 3.267 38.321C3.433 38.194 3.597 38.079 3.763 37.964L6.915 43.424C6.567 43.704 6.263 44.028 5.981 44.372C5.584 43.711 5.215 43.032 4.872 42.337C4.802 42.193 4.732 42.049 4.664 41.905ZM18.788 38.356L14.561 43.05C12.836 41.927 10.635 41.66 8.65 42.429L5.495 36.964C9.918 34.851 15.057 35.499 18.788 38.356ZM22.079 42.104C23.231 44.099 23.794 46.304 23.794 48.496L23.793 48.5C23.793 48.5 23.794 48.504 23.794 48.506C23.793 49.955 23.538 51.397 23.049 52.771L17.286 50.205C17.725 48.588 17.546 46.804 16.644 45.242C16.467 44.936 16.264 44.655 16.047 44.389L20.269 39.701C20.949 40.417 21.564 41.212 22.079 42.104ZM20.587 56.368C20.408 56.304 20.232 56.236 20.054 56.169C18.278 55.492 16.59 54.638 15.007 53.63C15.592 53.173 16.083 52.631 16.469 52.03L22.233 54.596C21.873 55.258 21.458 55.897 20.974 56.499C20.846 56.455 20.716 56.414 20.587 56.368ZM8.741 44.588C10.897 43.34 13.666 44.084 14.912 46.241C16.157 48.398 15.415 51.166 13.258 52.413C13.254 52.415 13.25 52.418 13.245 52.42C13.158 52.355 13.074 52.284 12.988 52.218C12.605 51.925 12.233 51.621 11.867 51.31C11.674 51.146 11.481 50.982 11.293 50.813C10.911 50.47 10.538 50.117 10.176 49.754C9.958 49.535 9.747 49.309 9.536 49.083C9.335 48.868 9.14 48.65 8.946 48.429C8.626 48.064 8.317 47.691 8.016 47.311C7.823 47.066 7.631 46.821 7.446 46.569C7.344 46.431 7.247 46.29 7.148 46.15C7.539 45.503 8.082 44.968 8.741 44.588ZM23.006 57.116C23.589 56.305 24.086 55.45 24.487 54.56C24.495 54.545 24.507 54.534 24.514 54.518C24.518 54.51 24.516 54.501 24.519 54.493C25.225 52.905 25.634 51.214 25.751 49.5H27C27.552 49.5 28 49.053 28 48.5C28 47.947 27.552 47.5 27 47.5H25.756C25.629 45.617 25.14 43.746 24.277 41.99L25.356 41.367C25.835 41.091 25.998 40.479 25.722 40.001C25.445 39.522 24.832 39.358 24.356 39.635L23.267 40.264C22.582 39.243 21.795 38.325 20.915 37.531C20.908 37.524 20.905 37.515 20.898 37.508C20.887 37.498 20.873 37.496 20.862 37.487C20.348 37.027 19.802 36.614 19.236 36.236L19.866 35.145C20.142 34.666 19.978 34.055 19.5 33.779C19.02 33.503 18.41 33.666 18.134 34.145L17.51 35.225C15.787 34.383 13.913 33.881 12 33.749V32.5C12 31.947 11.552 31.5 11 31.5C10.448 31.5 10 31.947 10 32.5V33.76C7.813 33.905 5.626 34.521 3.604 35.689C3.304 35.862 3.009 36.058 2.715 36.26C2.252 34.245 2 32.152 2 30C2 14.561 14.561 2 30 2C45.439 2 58 14.561 58 30C58 32.002 57.785 33.954 57.383 35.838C55.164 34.308 52.609 33.44 50 33.26V32C50 31.447 49.552 31 49 31C48.448 31 48 31.447 48 32V33.251C46.114 33.376 44.242 33.864 42.489 34.722L41.866 33.643C41.59 33.164 40.978 33 40.5 33.277C40.021 33.553 39.858 34.165 40.134 34.643L40.763 35.732C39.127 36.829 37.777 38.205 36.734 39.763L35.644 39.133C35.163 38.856 34.555 39.02 34.278 39.499C34.002 39.978 34.166 40.589 34.644 40.865L35.723 41.488C34.881 43.211 34.379 45.085 34.247 46.998H33C32.448 46.998 32 47.445 32 47.998C32 48.551 32.448 48.998 33 48.998H34.259C34.304 49.678 34.389 50.358 34.53 51.034C34.532 51.048 34.527 51.061 34.53 51.075C34.532 51.085 34.539 51.094 34.542 51.104C34.857 52.575 35.397 54.023 36.188 55.395C36.511 55.955 36.892 56.497 37.304 57.026C34.974 57.658 32.527 58 30 58C27.586 58 25.243 57.693 23.006 57.116ZM56.812 38.062C56.7 38.436 56.576 38.805 56.45 39.172C56.401 39.313 56.358 39.455 56.307 39.595C56.185 39.931 56.049 40.26 55.915 40.59C55.713 41.081 55.502 41.568 55.273 42.045C55.257 42.079 55.242 42.114 55.225 42.148C54.907 42.805 54.559 43.444 54.193 44.071C52.441 41.754 49.346 40.886 46.65 41.93L43.503 36.479C45.244 35.649 47.111 35.214 48.98 35.214C51.778 35.214 54.56 36.13 56.853 37.916C56.839 37.964 56.826 38.013 56.812 38.062ZM43.182 54.694C42.856 54.869 42.527 55.039 42.194 55.201C41.935 55.326 41.671 55.444 41.407 55.561C41.233 55.639 41.063 55.722 40.887 55.796C40.408 55.998 39.922 56.186 39.429 56.361C39.405 56.37 39.381 56.377 39.357 56.386C38.801 55.752 38.32 55.085 37.922 54.396C37.407 53.504 37.027 52.574 36.747 51.627L42.918 50.315C43.04 50.635 43.181 50.951 43.358 51.257C43.859 52.124 44.563 52.832 45.381 53.38C44.739 53.804 44.08 54.206 43.402 54.577C43.328 54.618 43.255 54.656 43.182 54.694ZM41.763 37.465L44.918 42.93C43.259 44.265 42.391 46.305 42.5 48.36L36.321 49.673C35.712 45.013 37.72 40.239 41.763 37.465ZM48.992 43.483C50.555 43.483 52.076 44.293 52.911 45.739C52.946 45.799 52.979 45.861 53.011 45.926C52.906 46.078 52.798 46.227 52.69 46.377C52.503 46.637 52.31 46.891 52.114 47.144C51.822 47.519 51.521 47.887 51.211 48.247C51.024 48.465 50.836 48.683 50.643 48.895C50.404 49.156 50.16 49.411 49.911 49.662C49.761 49.814 49.606 49.962 49.452 50.111C49.027 50.522 48.589 50.92 48.139 51.304C47.971 51.447 47.804 51.59 47.632 51.73C47.472 51.86 47.309 51.985 47.147 52.111C46.283 51.724 45.563 51.081 45.088 50.258C43.843 48.101 44.585 45.333 46.741 44.087C47.451 43.678 48.227 43.483 48.992 43.483Z" fill="#7281A0"/>
<path d="M38.692 31.329C39.315 29.008 38.995 26.582 37.794 24.501C37.566 24.106 37.303 23.74 37.025 23.389L44.609 15.805C45.521 16.815 46.346 17.93 47.053 19.155C48.785 22.155 49.691 25.587 49.673 29.079C49.67 29.631 50.116 30.081 50.668 30.084C50.668 30.084 50.671 30.084 50.673 30.084C51.223 30.084 51.67 29.64 51.673 29.089C51.681 27.492 51.504 25.909 51.169 24.364L53.442 23.754C53.976 23.611 54.292 23.063 54.149 22.529C54.006 21.995 53.457 21.676 52.924 21.822L50.655 22.43C50.286 21.262 49.818 20.128 49.255 19.037L51.285 17.865C51.764 17.589 51.927 16.977 51.651 16.499C51.375 16.02 50.762 15.855 50.285 16.133L48.24 17.314C47.57 16.267 46.834 15.285 46.021 14.393L47.678 12.736C48.069 12.345 48.069 11.713 47.678 11.322C47.287 10.931 46.655 10.931 46.264 11.322L44.611 12.975C43.698 12.143 42.717 11.407 41.69 10.752L42.866 8.716C43.142 8.237 42.979 7.626 42.5 7.35C42.021 7.073 41.409 7.237 41.134 7.716L39.955 9.758C38.864 9.196 37.73 8.735 36.564 8.365L37.177 6.077C37.32 5.544 37.003 4.995 36.47 4.852C35.933 4.705 35.388 5.026 35.245 5.559L34.632 7.847C33.439 7.584 32.226 7.417 31 7.358V5C31 4.447 30.552 4 30 4C29.448 4 29 4.447 29 5V7.352C27.783 7.406 26.566 7.553 25.359 7.817L24.754 5.559C24.611 5.026 24.066 4.705 23.529 4.852C22.996 4.995 22.679 5.543 22.822 6.077L23.428 8.34C22.277 8.706 21.15 9.189 20.045 9.76L18.865 7.716C18.589 7.236 17.978 7.072 17.5 7.35C17.021 7.626 16.858 8.238 17.134 8.716L18.306 10.745C17.266 11.412 16.294 12.16 15.396 12.982L13.736 11.322C13.345 10.931 12.713 10.931 12.322 11.322C11.931 11.713 11.931 12.345 12.322 12.736L13.986 14.4C13.161 15.309 12.416 16.283 11.758 17.313L9.71501 16.134C9.23501 15.857 8.62501 16.021 8.34901 16.5C8.07301 16.979 8.23701 17.59 8.71501 17.866L10.76 19.047C10.2 20.132 9.73001 21.265 9.35701 22.434L7.07601 21.822C6.54501 21.677 5.99401 21.996 5.85101 22.529C5.70801 23.062 6.02401 23.611 6.55801 23.754L8.839 24.366C8.501 25.901 8.31801 27.481 8.32301 29.087C8.32401 29.639 8.77201 30.084 9.32301 30.084H9.32601C9.87801 30.082 10.325 29.633 10.323 29.081C10.308 24.117 12.175 19.401 15.399 15.814L22.969 23.384C22.204 24.341 21.633 25.451 21.306 26.671C20.683 28.992 21.003 31.418 22.204 33.499C23.406 35.581 25.347 37.07 27.668 37.692C28.443 37.899 29.23 38.003 30.012 38.003C31.571 38.002 33.11 37.594 34.497 36.793C36.581 35.592 38.07 33.651 38.692 31.329ZM25.5 21.207C25.105 21.435 24.74 21.697 24.389 21.975L16.81 14.396C17.827 13.474 18.942 12.648 20.155 11.948C27.728 7.575 37.023 8.83 43.192 14.393L35.615 21.97C34.658 21.205 33.548 20.634 32.329 20.307C30.006 19.688 27.583 20.005 25.5 21.207ZM28.188 35.76C26.382 35.277 24.873 34.118 23.938 32.499C23.003 30.88 22.755 28.994 23.239 27.188C23.723 25.382 24.881 23.874 26.5 22.939C27.579 22.316 28.775 21.998 29.988 21.998C30.596 21.998 31.208 22.078 31.811 22.24C33.617 22.723 35.126 23.882 36.061 25.501C36.996 27.12 37.244 29.006 36.76 30.812C36.276 32.618 35.118 34.126 33.499 35.061C31.88 35.996 29.996 36.247 28.188 35.76Z" fill="#7281A0"/>
</svg>
