<svg width="60" height="60" viewBox="0 0 60 60" fill="none" xmlns="http://www.w3.org/2000/svg">
<g clip-path="url(#clip0)">
<path d="M58.655 28.873C51.042 21.199 40.897 16.973 30.087 16.973C30.061 16.973 30.036 16.975 30.01 16.975C29.997 16.975 29.985 16.973 29.973 16.973C29.937 16.973 29.902 16.978 29.867 16.978C19.14 17.035 9.08 21.251 1.52 28.873L1.29 29.105C0.900999 29.497 0.903999 30.13 1.296 30.519C1.491 30.712 1.746 30.809 2 30.809C2.257 30.809 2.515 30.71 2.71 30.513L2.94 30.281C8.185 24.994 14.698 21.44 21.796 19.879C18.857 22.264 16.973 25.901 16.973 29.973C16.973 37.141 22.805 42.973 29.973 42.973C37.141 42.973 42.973 37.141 42.973 29.973C42.973 25.857 41.045 22.189 38.051 19.806C45.277 21.328 51.909 24.913 57.235 30.282C57.624 30.675 58.258 30.677 58.649 30.288C59.041 29.898 59.044 29.265 58.655 28.873ZM40.973 29.972C40.973 36.037 36.038 40.972 29.973 40.972C23.908 40.972 18.973 36.037 18.973 29.972C18.973 23.943 23.851 19.035 29.866 18.977C29.914 18.977 29.962 18.974 30.01 18.974C36.058 18.995 40.973 23.92 40.973 29.972Z" fill="#7281A0"/>
<path d="M37 28.972C36.448 28.972 36 29.42 36 29.972C36 33.281 33.309 35.972 30 35.972C26.691 35.972 24 33.281 24 29.972C24 26.663 26.691 23.972 30 23.972C30.552 23.972 31 23.524 31 22.972C31 22.42 30.552 21.972 30 21.972C25.589 21.972 22 25.561 22 29.972C22 34.383 25.589 37.972 30 37.972C34.411 37.972 38 34.383 38 29.972C38 29.42 37.552 28.972 37 28.972Z" fill="#7281A0"/>
</g>
<circle cx="30" cy="30" r="29" stroke="#7281A0" stroke-width="2"/>
<defs>
<clipPath id="clip0">
<rect width="57.945" height="57.945" fill="white" transform="translate(1 1)"/>
</clipPath>
</defs>
</svg>
