<svg width="107" height="106" viewBox="0 0 107 106" fill="none" xmlns="http://www.w3.org/2000/svg">
<path d="M64 104.613C86.9821 104.613 105.613 85.9822 105.613 63C105.613 40.0178 86.9821 21.3871 64 21.3871C41.0178 21.3871 22.3871 40.0178 22.3871 63C22.3871 85.9822 41.0178 104.613 64 104.613Z" fill="white" stroke="#7281A0" stroke-width="1.5" stroke-miterlimit="10"/>
<path d="M63.9999 97.6773C83.1517 97.6773 98.6774 82.1517 98.6774 62.9999C98.6774 43.8481 83.1517 28.3225 63.9999 28.3225C44.8481 28.3225 29.3225 43.8481 29.3225 62.9999C29.3225 82.1517 44.8481 97.6773 63.9999 97.6773Z" stroke="#7281A0" stroke-width="1.5" stroke-miterlimit="10" stroke-dasharray="2.03 2.03"/>
<path d="M74.106 72.3134V74.8895H60.8295V80.2397H57.8571V74.8895H53.894V72.3134H57.8571V66.7651H53.894V64.189H57.8571V48.3365C59.2442 47.9402 60.6313 47.742 62.0184 47.5439C63.4055 47.3457 64.7926 47.3457 65.9815 47.3457C70.1428 47.3457 73.1152 48.1383 75.2949 49.9217C77.4746 51.7052 78.4654 54.083 78.4654 57.2535C78.4654 59.0369 78.0691 60.6222 77.4746 61.8111C76.8802 63.0001 75.8894 63.9909 74.7004 64.7835C73.5115 65.5761 72.1244 65.9724 70.341 66.3687C68.5576 66.7651 66.7742 66.7651 64.7926 66.7651H61.2258V72.3134H74.106ZM65.7834 50.1199C64.1981 50.1199 63.2073 50.1199 62.4147 50.3181C61.6221 50.3181 61.0276 50.5162 60.8295 50.5162V64.3872H64.1981C65.9815 64.3872 67.3686 64.189 68.7557 63.9909C70.1428 63.7927 71.1336 63.3964 72.1244 62.8019C73.1152 62.2075 73.7097 61.613 74.3041 60.6222C74.8986 59.6314 75.0967 58.6406 75.0967 57.2535C75.0967 55.8664 74.8986 54.6775 74.3041 53.6867C73.7097 52.6959 73.1152 52.1015 72.3226 51.507C71.5299 50.9125 70.5391 50.5162 69.3502 50.3181C68.1613 50.1199 66.9723 50.1199 65.7834 50.1199Z" fill="#7281A0"/>
<path d="M43 84.6129C65.9821 84.6129 84.6129 65.9822 84.6129 43C84.6129 20.0178 65.9821 1.38708 43 1.38708C20.0178 1.38708 1.38705 20.0178 1.38705 43C1.38705 65.9822 20.0178 84.6129 43 84.6129Z" fill="white" stroke="#7281A0" stroke-width="1.5" stroke-miterlimit="10"/>
<path d="M42.9999 77.6773C62.1517 77.6773 77.6774 62.1517 77.6774 42.9999C77.6774 23.8481 62.1517 8.32251 42.9999 8.32251C23.8481 8.32251 8.32253 23.8481 8.32253 42.9999C8.32253 62.1517 23.8481 77.6773 42.9999 77.6773Z" stroke="#7281A0" stroke-width="1.5" stroke-miterlimit="10" stroke-dasharray="2.03 2.03"/>
<path d="M53.106 52.3134V54.8895H39.8295V60.2397H36.8571V54.8895H32.894V52.3134H36.8571V46.7651H32.894V44.189H36.8571V28.3365C38.2442 27.9402 39.6313 27.742 41.0184 27.5439C42.4055 27.3457 43.7926 27.3457 44.9815 27.3457C49.1428 27.3457 52.1152 28.1383 54.2949 29.9217C56.4746 31.7052 57.4654 34.083 57.4654 37.2535C57.4654 39.0369 57.0691 40.6222 56.4746 41.8111C55.8802 43.0001 54.8894 43.9909 53.7004 44.7835C52.5115 45.5761 51.1244 45.9724 49.341 46.3687C47.5576 46.7651 45.7742 46.7651 43.7926 46.7651H40.2258V52.3134H53.106ZM44.7834 30.1199C43.1981 30.1199 42.2073 30.1199 41.4147 30.3181C40.6221 30.3181 40.0276 30.5162 39.8295 30.5162V44.3872H43.1981C44.9815 44.3872 46.3686 44.189 47.7557 43.9909C49.1428 43.7927 50.1336 43.3964 51.1244 42.8019C52.1152 42.2075 52.7097 41.613 53.3041 40.6222C53.8986 39.6314 54.0967 38.6406 54.0967 37.2535C54.0967 35.8664 53.8986 34.6775 53.3041 33.6867C52.7097 32.6959 52.1152 32.1015 51.3226 31.507C50.5299 30.9125 49.5391 30.5162 48.3502 30.3181C47.1613 30.1199 45.9723 30.1199 44.7834 30.1199Z" fill="#7281A0"/>
</svg>
