<svg width="60" height="60" viewBox="0 0 60 60" fill="none" xmlns="http://www.w3.org/2000/svg">
<path d="M60 30C60 13.458 46.542 0 30 0C13.458 0 0 13.458 0 30C0 36.142 1.858 41.857 5.038 46.618L5.036 46.639L5.243 46.942C5.423 47.205 5.617 47.454 5.805 47.71C5.881 47.814 5.956 47.919 6.034 48.023C6.272 48.339 6.517 48.649 6.766 48.954C6.838 49.042 6.911 49.129 6.984 49.216C8.141 50.601 9.411 51.869 10.777 53.01C10.86 53.079 10.942 53.149 11.026 53.218C11.324 53.461 11.625 53.699 11.932 53.93C12.056 54.024 12.182 54.115 12.307 54.207C12.599 54.421 12.891 54.633 13.191 54.836C13.351 54.945 13.517 55.047 13.679 55.153C14.095 55.423 14.515 55.684 14.943 55.932C15.241 56.106 15.54 56.279 15.845 56.443C16.029 56.542 16.217 56.634 16.403 56.729C16.727 56.895 17.054 57.056 17.385 57.21C17.552 57.287 17.719 57.363 17.887 57.437C18.27 57.607 18.658 57.768 19.049 57.922C19.17 57.97 19.29 58.019 19.412 58.066C20.485 58.472 21.587 58.82 22.714 59.102C22.76 59.114 22.807 59.123 22.853 59.134C23.351 59.256 23.854 59.365 24.362 59.462C24.497 59.488 24.632 59.511 24.767 59.535C24.787 59.539 24.806 59.542 24.826 59.545L24.823 59.565L25.351 59.639C25.471 59.658 25.591 59.672 25.711 59.689L25.821 59.704C25.842 59.707 25.862 59.708 25.883 59.71C25.937 59.717 25.992 59.724 26.046 59.731C26.21 59.753 26.373 59.774 26.537 59.794C26.934 59.84 27.333 59.876 27.735 59.906C27.819 59.912 27.903 59.922 27.986 59.928C28.082 59.934 28.179 59.941 28.275 59.947C28.847 59.979 29.421 60 30 60C30.579 60 31.153 59.979 31.724 59.947C31.823 59.941 31.922 59.934 32.021 59.927C32.105 59.921 32.189 59.911 32.274 59.905C32.672 59.875 33.069 59.839 33.463 59.794C33.627 59.775 33.791 59.753 33.954 59.731C34.019 59.722 34.084 59.715 34.148 59.706C34.168 59.703 34.189 59.702 34.209 59.7L34.31 59.686C34.423 59.67 34.537 59.656 34.649 59.638L35.21 59.559L35.207 59.538C35.216 59.536 35.225 59.535 35.234 59.533C35.369 59.509 35.504 59.486 35.639 59.46C36.147 59.363 36.65 59.254 37.148 59.132C37.194 59.121 37.241 59.111 37.287 59.1C38.414 58.818 39.516 58.47 40.589 58.064C40.711 58.018 40.832 57.968 40.954 57.92C41.345 57.766 41.732 57.605 42.115 57.436C42.283 57.362 42.451 57.286 42.617 57.209C42.948 57.055 43.275 56.894 43.599 56.728C43.786 56.633 43.973 56.54 44.157 56.442C44.462 56.278 44.76 56.105 45.059 55.931C45.487 55.682 45.908 55.422 46.323 55.152C46.486 55.046 46.651 54.944 46.811 54.835C47.11 54.632 47.403 54.42 47.695 54.206C47.82 54.114 47.946 54.023 48.07 53.929C48.376 53.698 48.678 53.46 48.976 53.217C49.06 53.148 49.142 53.078 49.225 53.009C50.591 51.867 51.861 50.6 53.019 49.214C53.092 49.127 53.164 49.041 53.235 48.953C53.484 48.648 53.729 48.338 53.967 48.022C54.045 47.919 54.119 47.814 54.196 47.709C54.384 47.453 54.578 47.204 54.758 46.941L54.965 46.638L54.963 46.617C58.142 41.857 60 36.142 60 30ZM58 30C58 34.972 56.691 39.642 54.409 43.694C52.802 38.366 48.083 34.504 42.424 34.052L42.386 34H41.311H36.532H35.366C35.164 34 35 33.836 35 33.635V32.99C35 32.807 35.149 32.687 35.276 32.638C41.715 30.217 45.731 20.174 44.889 13.15C44.45 9.492 42.639 6.223 40.006 3.855C50.517 7.892 58 18.086 58 30ZM52.538 46.59C52.457 46.699 52.376 46.807 52.294 46.915C52.071 47.208 51.846 47.499 51.612 47.783C51.588 47.812 51.563 47.84 51.539 47.869C50.731 48.841 49.858 49.757 48.928 50.612C48.873 50.663 48.818 50.715 48.762 50.765C48.485 51.016 48.201 51.26 47.914 51.5C47.824 51.575 47.733 51.649 47.642 51.723C47.363 51.95 47.082 52.173 46.795 52.389C46.698 52.462 46.598 52.531 46.5 52.603C46.335 52.724 46.168 52.841 46 52.958V48H44V54.233C43.961 54.256 43.922 54.278 43.882 54.301C43.627 54.447 43.372 54.592 43.113 54.729C42.936 54.823 42.756 54.914 42.576 55.005C42.274 55.157 41.97 55.304 41.663 55.445C41.513 55.514 41.364 55.583 41.213 55.649C40.828 55.817 40.439 55.977 40.047 56.128C39.966 56.159 39.887 56.193 39.806 56.223C38.806 56.597 37.784 56.915 36.743 57.173C36.668 57.192 36.592 57.207 36.517 57.225C36.086 57.328 35.652 57.422 35.215 57.504C35.113 57.523 35.01 57.541 34.907 57.559L33.162 46H34V43.535L38.471 46.515L42.644 36.083C47.923 36.678 52.168 40.756 52.891 46.095C52.774 46.261 52.659 46.427 52.538 46.59ZM23.482 57.226C23.407 57.208 23.332 57.192 23.257 57.174C22.216 56.915 21.193 56.598 20.193 56.224C20.112 56.194 20.032 56.16 19.952 56.129C19.56 55.978 19.171 55.818 18.787 55.65C18.636 55.584 18.486 55.515 18.336 55.446C18.029 55.305 17.725 55.158 17.423 55.006C17.243 54.915 17.063 54.825 16.886 54.73C16.627 54.593 16.372 54.447 16.117 54.302C16.078 54.279 16.038 54.257 15.999 54.234V48H13.999V52.958C13.832 52.841 13.664 52.723 13.499 52.603C13.401 52.531 13.301 52.462 13.204 52.389C12.917 52.173 12.636 51.95 12.358 51.724C12.266 51.65 12.175 51.575 12.084 51.5C11.797 51.261 11.514 51.017 11.238 50.766C11.181 50.715 11.126 50.662 11.07 50.611C10.14 49.756 9.267 48.841 8.46 47.869C8.436 47.84 8.411 47.812 8.387 47.783C8.153 47.499 7.928 47.208 7.705 46.915C7.623 46.807 7.541 46.699 7.461 46.59C7.341 46.427 7.226 46.261 7.109 46.095C7.833 40.756 12.077 36.678 17.356 36.083L21.529 46.515L26 43.535V46H26.84L25.12 57.566C25.008 57.546 24.896 57.527 24.785 57.506C24.348 57.423 23.913 57.329 23.482 57.226ZM25.491 30.791C20.709 29.022 17 20.85 17 15C17 14.872 17.015 14.747 17.019 14.62L17.751 13.717C19.402 11.753 22.22 11.191 24.763 12.317C25.785 12.771 26.874 13 28 13C30.971 13 33.64 11.385 35.028 8.816C38.21 9.861 41.05 11.831 42.971 14.314C43.264 20.414 39.677 28.847 34.573 30.766C33.617 31.126 33 31.999 33 32.99V33.635C33 34.781 33.82 35.738 34.904 35.954L33.198 38H26.802L25.096 35.953C26.18 35.738 27 34.78 27 33.635V33C27 32.014 26.395 31.126 25.491 30.791ZM30.04 2.002C30.052 2.002 30.062 2.002 30.073 2.002C30.562 2.005 31.043 2.032 31.503 2.085C36.462 2.638 40.629 6.09 42.255 10.674C40.14 8.832 37.547 7.414 34.758 6.647L33.898 6.411L33.565 7.237C32.644 9.522 30.46 11 28 11C27.155 11 26.338 10.828 25.573 10.489C22.807 9.265 19.787 9.596 17.556 11.219C18.169 9.193 19.276 7.337 20.817 5.799C23.271 3.35 26.53 2.002 30.04 2.002ZM34 40.162L37.469 36H40.523L37.53 43.484L34 41.132V40.162ZM32.365 57.888C32.095 57.911 31.824 57.937 31.556 57.953C31.042 57.981 30.525 58 30.007 58C29.973 58 29.938 57.997 29.904 57.997C29.419 57.995 28.935 57.98 28.454 57.953C28.19 57.938 27.924 57.912 27.658 57.89C27.472 57.874 27.287 57.859 27.102 57.839L28.862 46H31.139L32.925 57.837C32.739 57.856 32.552 57.872 32.365 57.888ZM32 44H28V42.202V40H32V42.202V44ZM26 40.162V41.132L22.471 43.485L19.478 36H22.532L26 40.162ZM19.982 3.86C19.789 4.034 19.59 4.198 19.404 4.383C16.564 7.218 15 10.987 15 15C15 21.629 19.19 30.593 24.797 32.666C24.916 32.711 25 32.848 25 33V33.635C25 33.836 24.836 34 24.635 34H23.469H18.69H18.145C18.049 34 17.954 34.014 17.864 34.039C12.079 34.382 7.226 38.278 5.592 43.695C3.309 39.642 2 34.972 2 30C2 18.09 9.478 7.9 19.982 3.86Z" fill="#7281A0"/>
</svg>
