<svg width="97" height="152" viewBox="0 0 97 152" fill="none" xmlns="http://www.w3.org/2000/svg">
<path d="M44 22C44 9.9 34.1 0 22 0C9.9 0 0 9.9 0 22C0 28.4 2.8 34.2 7.1 38.2L7.8 38.8L7.9 38.9C8.3 39.2 8.7 39.5 9.1 39.8C9.2 39.9 9.4 40 9.5 40.1C9.9 40.4 10.4 40.7 10.8 40.9C10.9 41 11 41 11.1 41.1C11.6 41.4 12.1 41.6 12.6 41.9C12.6 41.9 12.7 41.9 12.7 42C14.4 42.8 16.2 43.3 18 43.7C18.1 43.7 18.1 43.7 18.1 43.7C18.7 43.8 19.3 43.9 19.9 43.9C20 43.9 20 43.9 20.1 43.9C20.7 43.9 21.3 44 21.9 44C22.5 44 23.1 44 23.7 43.9C23.8 43.9 23.8 43.9 23.9 43.9C24.5 43.8 25.1 43.8 25.6 43.7C25.7 43.7 25.7 43.7 25.8 43.7C27.6 43.4 29.4 42.8 31 42.1C31.1 42.1 31.1 42 31.2 42C31.7 41.8 32.2 41.5 32.7 41.2C32.8 41.1 32.9 41.1 33.1 41C33.5 40.7 34 40.5 34.4 40.2C34.5 40.1 34.7 40 34.8 39.9C35.2 39.6 35.5 39.4 35.8 39.1C35.9 39 36 39 36 38.9L36.7 38.3C41.2 34.2 44 28.4 44 22ZM1.6 22C1.6 10.8 10.7 1.6 22 1.6C33.3 1.6 42.4 10.8 42.4 22C42.4 28.1 39.7 33.5 35.5 37.3C35.3 37.1 35 37 34.8 36.9L28 33.4C27.4 33.1 27 32.5 27 31.8V29.4C27.2 29.2 27.3 29 27.5 28.7C28.4 27.5 29.1 26.1 29.6 24.6C30.6 24.1 31.3 23.1 31.3 22V19.2C31.3 18.5 31 17.8 30.6 17.3V13.6C30.6 13.2 30.8 10.8 29.1 8.9C27.6 7.2 25.2 6.4 22 6.4C18.8 6.4 16.4 7.3 14.9 8.9C13.2 10.8 13.4 13.2 13.4 13.6V17.3C12.9 17.8 12.7 18.5 12.7 19.2V22C12.7 22.9 13.1 23.7 13.8 24.3C14.4 26.8 15.8 28.8 16.3 29.4V31.7C16.3 32.4 15.9 33 15.4 33.3L9 36.8C8.8 36.9 8.6 37 8.4 37.2C4.2 33.4 1.6 28 1.6 22ZM34 38.5C33.7 38.7 33.4 38.9 33.1 39.1C33 39.2 32.8 39.3 32.7 39.4C32.3 39.6 31.9 39.9 31.5 40.1C31.4 40.1 31.3 40.2 31.2 40.2C30.3 40.7 29.4 41.1 28.4 41.4H28.3C27.8 41.6 27.3 41.7 26.8 41.8C26.3 41.9 25.8 42 25.2 42.1C24.7 42.2 24.2 42.2 23.7 42.3C23.6 42.3 23.5 42.3 23.4 42.3C22.9 42.3 22.4 42.4 21.9 42.4C21.4 42.4 20.9 42.4 20.4 42.3C20.3 42.3 20.2 42.3 20.1 42.3C19.6 42.3 19.1 42.2 18.6 42.1H18.5C17.4 41.9 16.4 41.7 15.4 41.3H15.3C14.8 41.1 14.3 40.9 13.8 40.7C13.3 40.5 12.9 40.3 12.4 40C12.3 40 12.3 39.9 12.2 39.9C11.8 39.7 11.4 39.4 11 39.2C10.9 39.1 10.8 39.1 10.7 39C10.3 38.8 10 38.5 9.6 38.3L9.5 38.2H9.6L15.9 34.8C17 34.2 17.7 33.1 17.7 31.8V28.9L17.5 28.7C17.5 28.7 15.8 26.6 15.1 23.7L15 23.4L14.7 23.2C14.3 23 14.1 22.5 14.1 22.1V19.3C14.1 18.9 14.3 18.6 14.5 18.3L15 18V13.5V13.4C15 13.4 14.8 11.5 16.1 9.9C17.3 8.6 19.2 7.9 22 7.9C24.7 7.9 26.7 8.6 27.9 9.9C29.3 11.4 29 13.4 29 13.4V18L29.3 18.2C29.6 18.5 29.7 18.8 29.7 19.2V22C29.7 22.6 29.3 23.1 28.8 23.3L28.4 23.4L28.3 23.8C27.8 25.3 27.2 26.6 26.3 27.8C26.1 28.1 25.9 28.4 25.7 28.6L25.5 28.8V31.8C25.5 33.1 26.2 34.2 27.4 34.8L34.2 38.2C34.2 38.2 34.3 38.2 34.3 38.3C34.1 38.4 34.1 38.4 34 38.5Z" fill="#7281A0"/>
<path d="M44 128C44 115.9 34.1 106 22 106C9.9 106 0 115.9 0 128C0 134.4 2.8 140.2 7.1 144.2L7.8 144.8L7.9 144.9C8.3 145.2 8.7 145.5 9.1 145.8C9.2 145.9 9.4 146 9.5 146.1C9.9 146.4 10.4 146.7 10.8 146.9C10.9 147 11 147 11.1 147.1C11.6 147.4 12.1 147.6 12.6 147.9C12.6 147.9 12.7 147.9 12.7 148C14.4 148.8 16.2 149.3 18 149.7C18.1 149.7 18.1 149.7 18.1 149.7C18.7 149.8 19.3 149.9 19.9 149.9C20 149.9 20 149.9 20.1 149.9C20.7 149.9 21.3 150 21.9 150C22.5 150 23.1 150 23.7 149.9C23.8 149.9 23.8 149.9 23.9 149.9C24.5 149.8 25.1 149.8 25.6 149.7C25.7 149.7 25.7 149.7 25.8 149.7C27.6 149.4 29.4 148.8 31 148.1C31.1 148.1 31.1 148 31.2 148C31.7 147.8 32.2 147.5 32.7 147.2C32.8 147.1 32.9 147.1 33.1 147C33.5 146.7 34 146.5 34.4 146.2C34.5 146.1 34.7 146 34.8 145.9C35.2 145.6 35.5 145.4 35.8 145.1C35.9 145 36 145 36 144.9L36.7 144.3C41.2 140.2 44 134.4 44 128ZM1.6 128C1.6 116.8 10.7 107.6 22 107.6C33.3 107.6 42.4 116.8 42.4 128C42.4 134.1 39.7 139.5 35.5 143.3C35.3 143.1 35 143 34.8 142.9L28 139.4C27.4 139.1 27 138.5 27 137.8V135.4C27.2 135.2 27.3 135 27.5 134.7C28.4 133.5 29.1 132.1 29.6 130.6C30.6 130.1 31.3 129.1 31.3 128V125.2C31.3 124.5 31 123.8 30.6 123.3V119.6C30.6 119.2 30.8 116.8 29.1 114.9C27.6 113.2 25.2 112.4 22 112.4C18.8 112.4 16.4 113.3 14.9 114.9C13.2 116.8 13.4 119.2 13.4 119.6V123.3C12.9 123.8 12.7 124.5 12.7 125.2V128C12.7 128.9 13.1 129.7 13.8 130.3C14.4 132.8 15.8 134.8 16.3 135.4V137.7C16.3 138.4 15.9 139 15.4 139.3L9 142.8C8.8 142.9 8.6 143 8.4 143.2C4.2 139.4 1.6 134 1.6 128ZM34 144.5C33.7 144.7 33.4 144.9 33.1 145.1C33 145.2 32.8 145.3 32.7 145.4C32.3 145.6 31.9 145.9 31.5 146.1C31.4 146.1 31.3 146.2 31.2 146.2C30.3 146.7 29.4 147.1 28.4 147.4H28.3C27.8 147.6 27.3 147.7 26.8 147.8C26.3 147.9 25.8 148 25.2 148.1C24.7 148.2 24.2 148.2 23.7 148.3C23.6 148.3 23.5 148.3 23.4 148.3C22.9 148.3 22.4 148.4 21.9 148.4C21.4 148.4 20.9 148.4 20.4 148.3C20.3 148.3 20.2 148.3 20.1 148.3C19.6 148.3 19.1 148.2 18.6 148.1H18.5C17.4 147.9 16.4 147.7 15.4 147.3H15.3C14.8 147.1 14.3 146.9 13.8 146.7C13.3 146.5 12.9 146.3 12.4 146C12.3 146 12.3 145.9 12.2 145.9C11.8 145.7 11.4 145.4 11 145.2C10.9 145.1 10.8 145.1 10.7 145C10.3 144.8 10 144.5 9.6 144.3L9.5 144.2H9.6L15.9 140.8C17 140.2 17.7 139.1 17.7 137.8V134.9L17.5 134.7C17.5 134.7 15.8 132.6 15.1 129.7L15 129.4L14.7 129.2C14.3 129 14.1 128.5 14.1 128.1V125.3C14.1 124.9 14.3 124.6 14.5 124.3L15 124V119.5V119.4C15 119.4 14.8 117.5 16.1 115.9C17.3 114.6 19.2 113.9 22 113.9C24.7 113.9 26.7 114.6 27.9 115.9C29.3 117.4 29 119.4 29 119.4V124L29.3 124.2C29.6 124.5 29.7 124.8 29.7 125.2V128C29.7 128.6 29.3 129.1 28.8 129.3L28.4 129.4L28.3 129.8C27.8 131.3 27.2 132.6 26.3 133.8C26.1 134.1 25.9 134.4 25.7 134.6L25.5 134.8V137.8C25.5 139.1 26.2 140.2 27.4 140.8L34.2 144.2C34.2 144.2 34.3 144.2 34.3 144.3C34.1 144.4 34.1 144.4 34 144.5Z" fill="#7281A0"/>
<path d="M97 75C97 62.9 87.1 53 75 53C62.9 53 53 62.9 53 75C53 81.4 55.8 87.2 60.1 91.2L60.8 91.8L60.9 91.9C61.3 92.2 61.7 92.5 62.1 92.8C62.2 92.9 62.4 93 62.5 93.1C62.9 93.4 63.4 93.7 63.8 93.9C63.9 94 64 94 64.1 94.1C64.6 94.4 65.1 94.6 65.6 94.9C65.6 94.9 65.7 94.9 65.7 95C67.4 95.8 69.2 96.3 71 96.7C71.1 96.7 71.1 96.7 71.1 96.7C71.7 96.8 72.3 96.9 72.9 96.9C73 96.9 73 96.9 73.1 96.9C73.7 96.9 74.3 97 74.9 97C75.5 97 76.1 97 76.7 96.9C76.8 96.9 76.8 96.9 76.9 96.9C77.5 96.8 78.1 96.8 78.6 96.7C78.7 96.7 78.7 96.7 78.8 96.7C80.6 96.4 82.4 95.8 84 95.1C84.1 95.1 84.1 95 84.2 95C84.7 94.8 85.2 94.5 85.7 94.2C85.8 94.1 85.9 94.1 86.1 94C86.5 93.7 87 93.5 87.4 93.2C87.5 93.1 87.7 93 87.8 92.9C88.2 92.6 88.5 92.4 88.8 92.1C88.9 92 89 92 89 91.9L89.7 91.3C94.2 87.2 97 81.4 97 75ZM54.6 75C54.6 63.8 63.7 54.6 75 54.6C86.3 54.6 95.4 63.8 95.4 75C95.4 81.1 92.7 86.5 88.5 90.3C88.3 90.1 88 90 87.8 89.9L81 86.4C80.4 86.1 80 85.5 80 84.8V82.4C80.2 82.2 80.3 82 80.5 81.7C81.4 80.5 82.1 79.1 82.6 77.6C83.6 77.1 84.3 76.1 84.3 75V72.2C84.3 71.5 84 70.8 83.6 70.3V66.6C83.6 66.2 83.8 63.8 82.1 61.9C80.6 60.2 78.2 59.4 75 59.4C71.8 59.4 69.4 60.3 67.9 61.9C66.2 63.8 66.4 66.2 66.4 66.6V70.3C65.9 70.8 65.7 71.5 65.7 72.2V75C65.7 75.9 66.1 76.7 66.8 77.3C67.4 79.8 68.8 81.8 69.3 82.4V84.7C69.3 85.4 68.9 86 68.4 86.3L62 89.8C61.8 89.9 61.6 90 61.4 90.2C57.2 86.4 54.6 81 54.6 75ZM87 91.5C86.7 91.7 86.4 91.9 86.1 92.1C86 92.2 85.8 92.3 85.7 92.4C85.3 92.6 84.9 92.9 84.5 93.1C84.4 93.1 84.3 93.2 84.2 93.2C83.3 93.7 82.4 94.1 81.4 94.4H81.3C80.8 94.6 80.3 94.7 79.8 94.8C79.3 94.9 78.8 95 78.2 95.1C77.7 95.2 77.2 95.2 76.7 95.3C76.6 95.3 76.5 95.3 76.4 95.3C75.9 95.3 75.4 95.4 74.9 95.4C74.4 95.4 73.9 95.4 73.4 95.3C73.3 95.3 73.2 95.3 73.1 95.3C72.6 95.3 72.1 95.2 71.6 95.1H71.5C70.4 94.9 69.4 94.7 68.4 94.3H68.3C67.8 94.1 67.3 93.9 66.8 93.7C66.3 93.5 65.9 93.3 65.4 93C65.3 93 65.3 92.9 65.2 92.9C64.8 92.7 64.4 92.4 64 92.2C63.9 92.1 63.8 92.1 63.7 92C63.3 91.8 63 91.5 62.6 91.3L62.5 91.2H62.6L68.9 87.8C70 87.2 70.7 86.1 70.7 84.8V81.9L70.5 81.7C70.5 81.7 68.8 79.6 68.1 76.7L68 76.4L67.7 76.2C67.3 76 67.1 75.5 67.1 75.1V72.3C67.1 71.9 67.3 71.6 67.5 71.3L68 71V66.5V66.4C68 66.4 67.8 64.5 69.1 62.9C70.3 61.6 72.2 60.9 75 60.9C77.7 60.9 79.7 61.6 80.9 62.9C82.3 64.4 82 66.4 82 66.4V71L82.3 71.2C82.6 71.5 82.7 71.8 82.7 72.2V75C82.7 75.6 82.3 76.1 81.8 76.3L81.4 76.4L81.3 76.8C80.8 78.3 80.2 79.6 79.3 80.8C79.1 81.1 78.9 81.4 78.7 81.6L78.5 81.8V84.8C78.5 86.1 79.2 87.2 80.4 87.8L87.2 91.2C87.2 91.2 87.3 91.2 87.3 91.3C87.1 91.4 87.1 91.4 87 91.5Z" fill="#7281A0"/>
<path d="M22 52C9.9 52 0 61.9 0 74C0 80.4 2.7 86.1 7.1 90.2H7L7.6 90.7C10.7 93.4 14.5 95.1 18.5 95.7C18.8 95.7 19.1 95.8 19.4 95.8C19.7 95.8 20 95.9 20.3 95.9C20.8 95.9 21.2 96 21.7 96C21.8 96 21.8 96 21.8 96C21.8 96 21.8 96 21.9 96C34 96 43.9 86.1 43.9 74C44 61.9 34.1 52 22 52ZM21.9 94.4C21.8 94.4 21.8 94.4 21.7 94.4C21.3 94.4 20.9 94.4 20.6 94.3C16.4 94 12.5 92.4 9.3 89.9C9.6 89.6 9.9 89.4 10.3 89.2L17.6 86.1C18.2 85.8 18.6 85.2 18.9 84.5C19.1 84.1 19.1 83.5 18.8 83.1C18.5 82.7 18.1 82.4 17.6 82.4H12.5C12.5 82.4 10.7 82.2 9.4 81.7C9.1 81.6 9 81.5 9 81.5C9 81.5 9 81.4 9.1 81.3C10.9 78.7 14 73.6 14.1 68.2C14.1 67.9 14.3 60.8 21.6 60.7C25.9 60.7 27.9 63.3 28.9 65.4C29.4 66.5 29.7 67.7 29.8 69.2C30.1 73.9 32.3 78.4 34 81.3C34.1 81.5 34.1 81.6 34.1 81.8C34.1 82 34 82.1 33.8 82.2C33 82.7 31.9 82.5 31.9 82.5H26.6C26 82.5 25.5 82.9 25.3 83.4C25.1 84 25.3 84.6 25.7 84.9C26.3 85.4 26.5 85.5 26.6 85.5L32.7 89.2C33.2 89.5 33.7 89.9 34.1 90.3C30.6 93 26.4 94.4 21.9 94.4ZM35.4 89.4C34.9 88.7 34.3 88.2 33.6 87.8L27.5 84.1C27.5 84.1 27.4 84.1 27.4 84H31.8C32.1 84 33.5 84.2 34.7 83.5C35.2 83.2 35.6 82.7 35.7 82.1C35.8 81.5 35.7 80.9 35.4 80.4C33.7 77.6 31.7 73.4 31.4 69C31.3 67.3 31 65.8 30.4 64.6C29.3 62.1 26.8 59 21.7 59C12.9 59.1 12.6 68 12.6 68.1C12.5 73.3 9.3 78.4 7.9 80.3C7.5 80.8 7.4 81.4 7.5 81.8C7.7 82.3 8.1 82.7 8.8 83.1C10.3 83.8 12.3 84 12.4 84H17.3C17.2 84.3 17 84.6 16.9 84.7L9.6 87.8C9 88.1 8.5 88.5 8.1 88.9C4.1 85.2 1.6 79.9 1.6 74C1.6 62.7 10.7 53.6 22 53.6C33.3 53.6 42.4 62.7 42.4 74C42.4 80.1 39.7 85.6 35.4 89.4Z" fill="#7281A0"/>
<path d="M75 0C62.9 0 53 9.9 53 22C53 28.4 55.7 34.1 60.1 38.2H60L60.6 38.7C63.7 41.4 67.5 43.1 71.5 43.7C71.8 43.7 72.1 43.8 72.4 43.8C72.7 43.8 73 43.9 73.3 43.9C73.8 43.9 74.2 44 74.7 44C74.8 44 74.8 44 74.8 44C74.8 44 74.8 44 74.9 44C87 44 96.9 34.1 96.9 22C97 9.9 87.1 0 75 0ZM74.9 42.4C74.8 42.4 74.8 42.4 74.7 42.4C74.3 42.4 73.9 42.4 73.6 42.3C69.4 42 65.5 40.4 62.3 37.9C62.6 37.6 62.9 37.4 63.3 37.2L70.6 34.1C71.2 33.8 71.6 33.2 71.9 32.5C72.1 32.1 72.1 31.5 71.8 31.1C71.5 30.7 71.1 30.4 70.6 30.4H65.5C65.5 30.4 63.7 30.2 62.4 29.7C62.1 29.6 62 29.5 62 29.5C62 29.5 62 29.4 62.1 29.3C63.9 26.7 67 21.6 67.1 16.2C67.1 15.9 67.3 8.8 74.6 8.7C78.9 8.7 80.9 11.3 81.9 13.4C82.4 14.5 82.7 15.7 82.8 17.2C83.1 21.9 85.3 26.4 87 29.3C87.1 29.5 87.1 29.6 87.1 29.8C87.1 30 87 30.1 86.8 30.2C86 30.7 84.9 30.5 84.9 30.5H79.6C79 30.5 78.5 30.9 78.3 31.4C78.1 32 78.3 32.6 78.7 32.9C79.3 33.4 79.5 33.5 79.6 33.5L85.7 37.2C86.2 37.5 86.7 37.9 87.1 38.3C83.6 41 79.4 42.4 74.9 42.4ZM88.4 37.4C87.9 36.7 87.3 36.2 86.6 35.8L80.5 32.1C80.5 32.1 80.4 32.1 80.4 32H84.8C85.1 32 86.5 32.2 87.7 31.5C88.2 31.2 88.6 30.7 88.7 30.1C88.8 29.5 88.7 28.9 88.4 28.4C86.7 25.6 84.7 21.4 84.4 17C84.3 15.3 84 13.8 83.4 12.6C82.3 10.1 79.8 7 74.7 7C65.9 7.1 65.6 16 65.6 16.1C65.5 21.3 62.3 26.4 60.9 28.3C60.5 28.8 60.4 29.4 60.5 29.8C60.7 30.3 61.1 30.7 61.8 31.1C63.3 31.8 65.3 32 65.4 32H70.3C70.2 32.3 70 32.6 69.9 32.7L62.6 35.8C62 36.1 61.5 36.5 61.1 36.9C57.1 33.2 54.6 27.9 54.6 22C54.6 10.7 63.7 1.6 75 1.6C86.3 1.6 95.4 10.7 95.4 22C95.4 28.1 92.7 33.6 88.4 37.4Z" fill="#7281A0"/>
<path d="M75 107C62.9 107 53 116.9 53 129C53 135.4 55.7 141.1 60.1 145.2H60L60.6 145.7C63.7 148.4 67.5 150.1 71.5 150.7C71.8 150.7 72.1 150.8 72.4 150.8C72.7 150.8 73 150.9 73.3 150.9C73.8 150.9 74.2 151 74.7 151C74.8 151 74.8 151 74.8 151C74.8 151 74.8 151 74.9 151C87 151 96.9 141.1 96.9 129C97 116.9 87.1 107 75 107ZM74.9 149.4C74.8 149.4 74.8 149.4 74.7 149.4C74.3 149.4 73.9 149.4 73.6 149.3C69.4 149 65.5 147.4 62.3 144.9C62.6 144.6 62.9 144.4 63.3 144.2L70.6 141.1C71.2 140.8 71.6 140.2 71.9 139.5C72.1 139.1 72.1 138.5 71.8 138.1C71.5 137.7 71.1 137.4 70.6 137.4H65.5C65.5 137.4 63.7 137.2 62.4 136.7C62.1 136.6 62 136.5 62 136.5C62 136.5 62 136.4 62.1 136.3C63.9 133.7 67 128.6 67.1 123.2C67.1 122.9 67.3 115.8 74.6 115.7C78.9 115.7 80.9 118.3 81.9 120.4C82.4 121.5 82.7 122.7 82.8 124.2C83.1 128.9 85.3 133.4 87 136.3C87.1 136.5 87.1 136.6 87.1 136.8C87.1 137 87 137.1 86.8 137.2C86 137.7 84.9 137.5 84.9 137.5H79.6C79 137.5 78.5 137.9 78.3 138.4C78.1 139 78.3 139.6 78.7 139.9C79.3 140.4 79.5 140.5 79.6 140.5L85.7 144.2C86.2 144.5 86.7 144.9 87.1 145.3C83.6 148 79.4 149.4 74.9 149.4ZM88.4 144.4C87.9 143.7 87.3 143.2 86.6 142.8L80.5 139.1C80.5 139.1 80.4 139.1 80.4 139H84.8C85.1 139 86.5 139.2 87.7 138.5C88.2 138.2 88.6 137.7 88.7 137.1C88.8 136.5 88.7 135.9 88.4 135.4C86.7 132.6 84.7 128.4 84.4 124C84.3 122.3 84 120.8 83.4 119.6C82.3 117.1 79.8 114 74.7 114C65.9 114.1 65.6 123 65.6 123.1C65.5 128.3 62.3 133.4 60.9 135.3C60.5 135.8 60.4 136.4 60.5 136.8C60.7 137.3 61.1 137.7 61.8 138.1C63.3 138.8 65.3 139 65.4 139H70.3C70.2 139.3 70 139.6 69.9 139.7L62.6 142.8C62 143.1 61.5 143.5 61.1 143.9C57.1 140.2 54.6 134.9 54.6 129C54.6 117.7 63.7 108.6 75 108.6C86.3 108.6 95.4 117.7 95.4 129C95.4 135.1 92.7 140.6 88.4 144.4Z" fill="#7281A0"/>
</svg>
