<svg width="199" height="36" viewBox="0 0 199 36" fill="none" xmlns="http://www.w3.org/2000/svg">
<path d="M59.7249 8.93707L67.2061 25.4266H65.8345L63.2161 19.7622H55.2362L52.6177 25.4266H51.2462L58.7274 8.93707H59.7249ZM62.8421 18.7553L59.3508 11.0769L55.8596 18.7553H62.8421Z" fill="#59607A"/>
<path d="M68.7025 25.4266V14.6014H72.3184C74.9368 14.6014 75.9343 15.9861 75.9343 17.2448C75.9343 18.3777 75.1862 19.5105 74.064 19.8882C75.6849 20.1399 76.5577 21.1469 76.5577 22.5315C76.5577 24.2937 74.9368 25.4266 72.8171 25.4266H68.7025ZM69.8246 15.6084V19.5105H72.069C73.9393 19.5105 74.8121 18.5035 74.8121 17.4965C74.8121 16.2378 73.5652 15.6084 71.9443 15.6084H69.8246ZM69.8246 20.5175V24.5455H72.6924C74.6874 24.5455 75.3108 23.4126 75.3108 22.4056C75.3108 21.021 74.064 20.5175 72.443 20.5175H69.8246Z" fill="#59607A"/>
<path d="M79.7994 15.2308C81.0463 14.6014 81.9191 14.3497 83.0412 14.3497C86.0337 14.3497 88.2781 16.7413 88.2781 19.8881C88.2781 23.035 85.909 25.5525 82.9166 25.5525C81.7944 25.5525 80.9216 25.3007 79.7994 24.6714V30.8392H78.5525V14.4755H79.7994V15.2308ZM79.7994 23.7902C80.9216 24.4196 81.6697 24.6714 82.7919 24.6714C85.4103 24.6714 87.0312 22.9091 87.0312 20.2658C87.0312 17.6224 85.1609 15.7343 82.5425 15.7343C81.545 15.7343 80.7969 15.986 79.6747 16.4895V23.7902H79.7994Z" fill="#59607A"/>
<path d="M95.3851 25.6783C92.268 25.6783 89.8989 23.2867 89.8989 20.014C89.8989 16.7413 92.268 14.3497 95.3851 14.3497C98.5023 14.3497 100.871 16.7413 100.871 20.014C100.871 23.2867 98.5023 25.6783 95.3851 25.6783ZM95.3851 15.6084C92.8914 15.6084 91.1458 17.4965 91.1458 20.1399C91.1458 22.6574 93.0161 24.6714 95.3851 24.6714C97.7542 24.6714 99.6245 22.7832 99.6245 20.1399C99.6245 17.4965 97.7542 15.6084 95.3851 15.6084Z" fill="#59607A"/>
<path d="M104.113 15.2308C105.36 14.6014 106.233 14.3497 107.355 14.3497C110.348 14.3497 112.592 16.7413 112.592 19.8881C112.592 23.035 110.223 25.5525 107.231 25.5525C106.108 25.5525 105.236 25.3007 104.113 24.6714V30.8392H102.991V14.4755H104.113V15.2308ZM104.113 23.7902C105.236 24.4196 105.984 24.6714 107.106 24.6714C109.724 24.6714 111.345 22.9091 111.345 20.2658C111.345 17.6224 109.475 15.7343 106.856 15.7343C105.859 15.7343 105.111 15.986 103.989 16.4895V23.7902H104.113Z" fill="#59607A"/>
<path d="M120.323 17.6224C120.323 16.2378 119.575 15.3566 117.954 15.3566C116.831 15.3566 115.959 15.7343 114.712 16.7413V15.6084C116.083 14.7273 116.956 14.4755 118.203 14.4755C119.575 14.4755 121.569 14.979 121.569 17.2448V24.042C121.569 24.4196 121.694 24.5455 121.819 24.5455C122.068 24.5455 122.816 24.042 123.315 23.5385V24.5455L123.066 24.6713C121.944 25.5524 121.569 25.6783 121.071 25.6783C120.572 25.6783 120.447 25.4266 120.323 24.2937C119.076 25.1748 118.078 25.6783 116.956 25.6783C115.335 25.6783 114.088 24.4196 114.088 22.9091C114.088 20.1399 117.205 19.1329 120.323 19.007V17.6224ZM120.323 20.014C117.58 19.8881 115.21 21.1469 115.21 23.035C115.21 24.042 116.083 24.7972 117.33 24.7972C118.328 24.7972 119.2 24.4196 120.323 23.4126V20.014Z" fill="#59607A"/>
<path d="M126.058 9.06293V16.6154H126.682C128.303 16.6154 129.175 15.986 130.048 14.2238L131.544 10.951C132.293 9.44055 132.916 9.06293 134.288 9.06293H134.911V10.0699H134.288C133.165 10.0699 133.041 10.4475 132.542 11.4545L131.295 14.2238C130.796 15.4825 129.799 16.7412 129.175 16.993C130.422 17.2447 131.295 18.5035 132.293 20.1398L135.534 25.3007H133.913L131.17 20.5175C129.923 18.2517 128.801 17.4965 127.305 17.4965H126.183V25.4266H124.936V9.06293H126.058Z" fill="#59607A"/>
<path d="M141.27 25.6783C138.153 25.6783 135.784 23.2867 135.784 20.014C135.784 16.7413 138.153 14.3497 141.27 14.3497C144.387 14.3497 146.756 16.7413 146.756 20.014C146.756 23.2867 144.387 25.6783 141.27 25.6783ZM141.27 15.6084C138.776 15.6084 137.031 17.4965 137.031 20.1399C137.031 22.6574 138.901 24.6714 141.27 24.6714C143.639 24.6714 145.509 22.7832 145.509 20.1399C145.509 17.4965 143.764 15.6084 141.27 15.6084Z" fill="#59607A"/>
<path d="M157.853 14.6014V25.4266H156.731V20.2658H150.123V25.4266H149V14.6014H150.123V19.3847H156.731V14.6014H157.853Z" fill="#59607A"/>
<path d="M168.202 25.1748C166.955 25.5524 166.207 25.6783 165.21 25.6783C162.093 25.6783 159.973 23.5385 159.973 20.2657C159.973 16.8671 162.093 14.4755 165.21 14.4755C166.083 14.4755 166.831 14.6014 168.078 14.979V16.2378C166.831 15.7343 166.207 15.6084 165.335 15.6084C162.965 15.6084 161.345 17.4965 161.345 20.1399C161.345 22.9091 162.965 24.5455 165.459 24.5455C166.457 24.5455 167.205 24.4196 168.327 23.9161V25.1748H168.202Z" fill="#59607A"/>
<path d="M175.808 17.6224C175.808 16.2378 175.06 15.3566 173.439 15.3566C172.317 15.3566 171.444 15.7343 170.197 16.7413V15.6084C171.569 14.7273 172.442 14.4755 173.689 14.4755C175.06 14.4755 177.055 14.979 177.055 17.2448V24.042C177.055 24.4196 177.18 24.5455 177.304 24.5455C177.554 24.5455 178.302 24.042 178.801 23.5385V24.5455L178.551 24.6713C177.429 25.5524 177.055 25.6783 176.556 25.6783C176.058 25.6783 175.933 25.4266 175.808 24.2937C174.561 25.1748 173.564 25.6783 172.442 25.6783C170.821 25.6783 169.574 24.4196 169.574 22.9091C169.574 20.1399 172.691 19.1329 175.808 19.007V17.6224ZM175.808 20.014C173.065 19.8881 170.696 21.1469 170.696 23.035C170.696 24.042 171.569 24.7972 172.816 24.7972C173.813 24.7972 174.686 24.4196 175.808 23.4126V20.014Z" fill="#59607A"/>
<path d="M185.035 14.4755L189.648 25.5524H188.526L184.661 16.4895L180.671 25.5524H179.549L184.412 14.4755H185.035Z" fill="#59607A"/>
<path d="M199 14.6014V15.6084H194.262V25.4266H193.14V15.6084H188.277V14.6014H199Z" fill="#59607A"/>
<path d="M0 18H35.6604C35.6604 15.8602 35.2863 13.8462 34.6629 11.9581H0.997494C0.37406 13.8462 0 15.8602 0 18Z" fill="#E9D0D4"/>
<path d="M9.7256 5.91608C8.10467 7.67831 6.8578 9.6923 6.10968 11.958H39.6504C38.9023 9.6923 37.6554 7.67831 36.0345 5.91608H9.7256Z" fill="#DAB1BF"/>
<path d="M20.324 0C15.0872 0 10.4738 2.26573 7.23193 5.91608H33.5408C30.299 2.26573 25.5609 0 20.324 0Z" fill="#BF869C"/>
<path d="M3.61589 24.042H37.1566C37.7801 22.1538 38.1541 20.1399 38.1541 18H2.49371C2.49371 20.1399 2.86777 22.1538 3.61589 24.042Z" fill="#B1BCDA"/>
<path d="M12.2193 30.084H38.5282C40.1491 28.3217 41.396 26.3077 42.1441 24.042H8.60339C9.4762 26.3077 10.7231 28.3217 12.2193 30.084Z" fill="#7281A0"/>
<path d="M20.324 36C25.5609 36 30.1743 33.7343 33.5408 30.0839H7.23193C10.4738 33.7343 15.0872 36 20.324 36Z" fill="#59607A"/>
</svg>
